<svg width="12" height="12" viewBox="0 0 12 12" fill="none" xmlns="http://www.w3.org/2000/svg">
<g clip-path="url(#clip0_4818_43909)">
<path d="M6.302 0.670083C6.4985 1.01508 6.694 1.36108 6.889 1.70758C6.89688 1.72144 6.9083 1.73295 6.9221 1.74095C6.93589 1.74894 6.95156 1.75313 6.9675 1.75308H9.7435C9.8305 1.75308 9.9045 1.80808 9.9665 1.91658L10.6935 3.20158C10.7885 3.37008 10.8135 3.44058 10.7055 3.62008C10.5755 3.83508 10.449 4.05208 10.3255 4.27008L10.142 4.59908C10.089 4.69708 10.0305 4.73908 10.122 4.85508L11.448 7.17358C11.534 7.32408 11.5035 7.42058 11.4265 7.55858C11.208 7.95108 10.9855 8.34058 10.759 8.72858C10.6795 8.86458 10.583 8.91608 10.419 8.91358C10.0305 8.90558 9.643 8.90858 9.2555 8.92158C9.24719 8.92201 9.23913 8.92453 9.23205 8.9289C9.22497 8.93327 9.21911 8.93935 9.215 8.94658C8.76792 9.73872 8.31708 10.5287 7.8625 11.3166C7.778 11.4631 7.6725 11.4981 7.5 11.4986C7.0015 11.5001 6.499 11.5006 5.9915 11.4996C5.94425 11.4995 5.89787 11.4869 5.85705 11.4631C5.81623 11.4393 5.7824 11.4051 5.759 11.3641L5.0915 10.2026C5.08762 10.195 5.08165 10.1886 5.07431 10.1843C5.06696 10.18 5.05853 10.1778 5.05 10.1781H2.491C2.3485 10.1931 2.2145 10.1776 2.0885 10.1321L1.287 8.74708C1.2633 8.70608 1.25073 8.65958 1.25056 8.61222C1.25038 8.56485 1.2626 8.51826 1.286 8.47708L1.8895 7.41708C1.8981 7.40209 1.90262 7.38511 1.90262 7.36783C1.90262 7.35055 1.8981 7.33357 1.8895 7.31858C1.57513 6.77432 1.26263 6.22898 0.952 5.68258L0.557 4.98508C0.477 4.83008 0.4705 4.73708 0.6045 4.50258C0.837 4.09608 1.068 3.69008 1.298 3.28458C1.364 3.16758 1.45 3.11758 1.59 3.11708C2.0215 3.11527 2.453 3.1151 2.8845 3.11658C2.8954 3.1165 2.90608 3.11354 2.91548 3.10801C2.92487 3.10248 2.93264 3.09457 2.938 3.08508L4.341 0.637583C4.36226 0.600349 4.39296 0.569376 4.43 0.547783C4.46704 0.526189 4.50912 0.514738 4.552 0.514583C4.814 0.514083 5.0785 0.514583 5.3435 0.511583L5.852 0.500083C6.0225 0.498583 6.214 0.516083 6.302 0.670083ZM4.586 0.871583C4.58073 0.871579 4.57555 0.872964 4.57099 0.875597C4.56642 0.87823 4.56263 0.882019 4.56 0.886583L3.127 3.39408C3.12012 3.4059 3.11027 3.41571 3.09843 3.42255C3.08659 3.42939 3.07317 3.43302 3.0595 3.43308H1.6265C1.5985 3.43308 1.5915 3.44558 1.606 3.47008L4.511 8.54808C4.5235 8.56908 4.5175 8.57908 4.494 8.57958L3.0965 8.58708C3.07607 8.5864 3.05586 8.59148 3.03818 8.60173C3.02049 8.61199 3.00605 8.62701 2.9965 8.64508L2.3365 9.80008C2.3145 9.83908 2.326 9.85908 2.3705 9.85908L5.2285 9.86308C5.2515 9.86308 5.2685 9.87308 5.2805 9.89358L5.982 11.1206C6.005 11.1611 6.028 11.1616 6.0515 11.1206L8.5545 6.74058L8.946 6.04958C8.94839 6.04531 8.95187 6.04176 8.95609 6.03929C8.96031 6.03681 8.96511 6.03551 8.97 6.03551C8.97489 6.03551 8.97969 6.03681 8.98391 6.03929C8.98813 6.04176 8.99161 6.04531 8.994 6.04958L9.706 7.31458C9.71135 7.32405 9.71912 7.33191 9.72853 7.33736C9.73794 7.34281 9.74863 7.34565 9.7595 7.34558L11.141 7.33558C11.1445 7.33561 11.148 7.33471 11.1511 7.33295C11.1542 7.33119 11.1567 7.32865 11.1585 7.32558C11.1602 7.32253 11.1611 7.31908 11.1611 7.31558C11.1611 7.31208 11.1602 7.30864 11.1585 7.30558L9.7085 4.76258C9.70328 4.75408 9.70052 4.74431 9.70052 4.73433C9.70052 4.72436 9.70328 4.71458 9.7085 4.70608L9.855 4.45258L10.415 3.46408C10.427 3.44358 10.421 3.43308 10.3975 3.43308H4.6C4.5705 3.43308 4.5635 3.42008 4.5785 3.39458L5.2955 2.14208C5.30087 2.13355 5.30372 2.12367 5.30372 2.11358C5.30372 2.1035 5.30087 2.09362 5.2955 2.08508L4.6125 0.887083C4.60989 0.882352 4.60605 0.878414 4.60138 0.875686C4.59672 0.872958 4.5914 0.87154 4.586 0.871583ZM7.731 4.88158C7.754 4.88158 7.76 4.89158 7.748 4.91158L7.332 5.64408L6.0255 7.93658C6.02305 7.94104 6.01942 7.94475 6.01502 7.94731C6.01061 7.94986 6.00559 7.95117 6.0005 7.95108C5.99543 7.95106 5.99045 7.94971 5.98606 7.94717C5.98168 7.94462 5.97804 7.94097 5.9755 7.93658L4.249 4.92058C4.239 4.90358 4.244 4.89458 4.263 4.89358L4.371 4.88758L7.732 4.88158H7.731Z" fill="#8D66FF"/>
</g>
<defs>
<clipPath id="clip0_4818_43909">
<rect width="12" height="12" fill="white"/>
</clipPath>
</defs>
</svg>
